<?xml version="1.0" encoding="utf-8"?>
<!-- Generator: Adobe Illustrator 16.0.0, SVG Export Plug-In . SVG Version: 6.00 Build 0)  -->
<!DOCTYPE svg PUBLIC "-//W3C//DTD SVG 1.1//EN" "http://www.w3.org/Graphics/SVG/1.1/DTD/svg11.dtd">
<svg version="1.1" id="Layer_1" xmlns="http://www.w3.org/2000/svg" xmlns:xlink="http://www.w3.org/1999/xlink" x="0px" y="0px"
	 width="220px" height="220px" viewBox="0 0 220 220" enable-background="new 0 0 220 220" xml:space="preserve">
<rect width="220" height="220"/>
<g>
	<path fill="#FFFFFF" d="M210.049,82.122l-0.193,0.915l0.426-0.244C210.381,82.555,210.324,82.016,210.049,82.122z"/>
	<path fill="#FFFFFF" d="M208.414,81.708c-0.102-0.202-0.002-0.44,0.021-0.609c-0.322,0.443-0.695,1.222-0.486,2.061
		c0.318-0.878,0.396-0.512,0.74-1.558c0.275-0.106,0.48,0.293,0.434,0.63c0.096-0.234,0.426,0.201,0.574-0.373
		C209.34,81.152,208.887,81.124,208.414,81.708z"/>
	<path fill="#FFFFFF" d="M181.777,79.782c-0.049-0.06-0.107-0.093-0.174-0.108L181.777,79.782z"/>
	<path fill="#FFFFFF" d="M164.979,79.172c0.127-0.021,0.18-0.112,0.186-0.195C165.047,79.037,164.951,79.092,164.979,79.172z"/>
	<path fill="#FFFFFF" d="M162.141,78.165c0.061,0.029,0.113,0.042,0.168,0.062C162.244,78.143,162.18,78.096,162.141,78.165z"/>
	<path fill="#FFFFFF" d="M181.604,79.674l-0.443-0.287C181.129,79.685,181.387,79.607,181.604,79.674z"/>
	<path fill="#FFFFFF" d="M204.734,83.304c0.094-0.043,0.17-0.129,0.242-0.24c-0.076,0.039-0.15,0.072-0.227,0.096
		C204.744,83.209,204.74,83.25,204.734,83.304z"/>
	<path fill="#FFFFFF" d="M188.932,78.933l0.135-0.001c0.041-0.104,0.078-0.229,0.113-0.372L188.932,78.933z"/>
	<path fill="#FFFFFF" d="M194.336,79.874c0.072-0.32,0.166-0.472,0.277-0.532c0.002-0.147-0.014-0.324-0.057-0.549
		C194.43,78.759,194.385,79.535,194.336,79.874z"/>
	<path fill="#FFFFFF" d="M203.475,80.159l0.158-0.107C203.592,80.084,203.521,80.116,203.475,80.159z"/>
	<path fill="#FFFFFF" d="M184.906,78.765c-0.01-0.115-0.029-0.216-0.051-0.277C184.855,78.585,184.875,78.677,184.906,78.765z"/>
	<path fill="#FFFFFF" d="M27.598,84.599c0.005-0.055-0.002-0.09,0-0.139C27.565,84.539,27.555,84.595,27.598,84.599z"/>
	<path fill="#FFFFFF" d="M21.079,80.754l0.09-0.042c0.01-0.147,0.02-0.291,0.02-0.435L21.079,80.754z"/>
	<path fill="#FFFFFF" d="M204.59,83.203c-0.076,0.009-0.154,0.015-0.232,0.008C204.465,83.235,204.535,83.234,204.59,83.203z"/>
	<path fill="#FFFFFF" d="M145.1,77.977c-0.004-0.08-0.031-0.177-0.123-0.34C145.002,77.773,145.049,77.877,145.1,77.977z"/>
	<path fill="#FFFFFF" d="M153.895,78.741l-0.221-0.104C153.76,78.708,153.832,78.732,153.895,78.741z"/>
	<path fill="#FFFFFF" d="M140.248,78.67c-0.061-0.042-0.115-0.07-0.225,0c0.016,0.039,0.029,0.067,0.049,0.094
		C140.115,78.688,140.17,78.643,140.248,78.67z"/>
	<path fill="#FFFFFF" d="M135.529,78.737c0.025,0.059,0.059,0.104,0.088,0.156c0.049-0.013,0.104-0.028,0.152-0.042L135.529,78.737z
		"/>
	<path fill="#FFFFFF" d="M42.243,84.226c-0.106-0.218-0.171-0.459-0.223-0.697C42.094,84.08,41.386,84.277,42.243,84.226z"/>
	<path fill="#FFFFFF" d="M204.732,82.868c-0.027,0.197-0.07,0.293-0.143,0.335c0.055-0.009,0.107-0.024,0.16-0.042
		C204.764,83.045,204.768,82.936,204.732,82.868z"/>
	<path fill="#FFFFFF" d="M140.15,84.857l-0.764-0.115C139.6,84.818,139.879,84.857,140.15,84.857z"/>
	<path fill="#FFFFFF" d="M76.812,84.115l-0.175,0.093C76.704,84.226,76.767,84.203,76.812,84.115z"/>
	<path fill="#FFFFFF" d="M137.115,84.857c-0.139-0.274-0.283-0.433-0.432-0.537c-0.033,0.061-0.068,0.11-0.09,0.2L137.115,84.857z"
		/>
	<path fill="#FFFFFF" d="M207.184,81.655l0.088,0.066C207.254,81.677,207.227,81.648,207.184,81.655z"/>
	<polygon fill="#FFFFFF" points="109.465,79.404 109.463,79.408 109.465,79.409 	"/>
	<path fill="#FFFFFF" d="M207.537,81.92l-0.266-0.199c0.066,0.165-0.016,0.601-0.133,0.708c-0.473,0.583-0.682-0.257-0.707-0.528
		l0.35-0.173c-0.359-1.58-1.404,0.253-2.107,0.162l0.293-1.149l-0.721,0.954c-0.152-0.299-0.258-0.941,0.09-1.113
		c-0.506-0.567-0.447,0.409-0.881-0.225c-0.047-0.098-0.025-0.153,0.02-0.199l-0.492,0.342c0.096-0.241-0.082-0.811,0.221-0.645
		c-0.885-0.663-1.426,0.861-1.758-0.009l0.072-0.071c-1.227,0.388-0.117,0.844-1.037,1.833l-0.619-2.081l-0.121,0.843
		c-0.125-0.03-0.377-0.094-0.332-0.431c-0.469,0.577,0.082,0.367-0.191,0.912c-0.609-0.768-1.68,0.359-1.816-0.984
		c-0.219,0.641,0.582,0.494-0.068,0.94c-0.186-1.445-0.752,0.248-1.307-0.415c0.17-0.746,0.697-0.351,0.141-1.016
		c-0.336,1.26-1.082-0.277-1.553-0.036c-0.021,1.003-1.021,0.419-1.809,0.753c0.051-0.337-1.48-0.552-2.213-0.915l0.021-0.168
		c-0.143,1.014-0.896,0.823-1.447,1.033c0.021-0.608,0.121-0.847,0.418-1.119l-0.518,0.005c-0.121,0.325-0.283,0.496-0.619,0.612
		l0.131-0.758c-0.688,0.042-1.387,0.893-2.271,0.386c-0.051,0.708,0.703,1.97-0.232,2.442c-0.035-0.382-0.07-1.037,0.176-1.193
		c-0.08,0.051-0.287,0.317-0.449,0.155l0.375-0.644c-0.404-0.283-0.211,0.538-0.533,0.478c0.006-0.545-0.238-0.389-0.193-0.822
		c0.084-0.053,0.283,0.226,0.406,0.012c-0.363-0.098-0.803-0.421-0.949-0.834c0.031,0.31,0,0.734-0.266,0.806
		c-0.689,0.04-0.236-0.657-0.639-0.936c-0.166,0.378-0.605-0.015-0.617,0.801c-0.201-0.004-0.238-0.384-0.316-0.605
		c-0.355,0.359-1.664,0.103-1.262,0.97l0.092,0.07c-0.018,0.017-0.039,0.049-0.059,0.049c-1.168,0.69-2.426-0.475-3.586-0.125
		l0.002-0.28c-0.691,0.312-1.537,0.181-2.033,0.768c-0.203,0-0.482-0.5-0.395-0.824c-0.527,0.205-0.588,0.51-1.352,0.06
		c0.531-0.476-0.184-0.422,0.545-0.349c-0.688-0.235-0.842-0.672-1.58,0.073c0.25-0.698-0.518-0.88-0.844-0.671l0.482,0.5
		c-0.367,0.102-0.689,0.04-1.016-0.02l0.176-0.919c-1.406-1.118-2.535,1.903-3.605,0.031c-0.371,0.643,0.766,0.453,0.432,1.204
		c-0.646-0.123-1.32-1.442-1.523-1.445c-0.885-0.509-0.824,1.343-1.752,0.995c0.117,0.327,0.23,1.202-0.463,1.511
		c-0.646-0.121-0.795-1.375-0.387-1.638c0.156-0.028,0.23,0.077,0.223,0.188c0.209-0.119,0.484-0.26,0.229-0.615l-0.084,0.327
		c-0.322-0.334-1.213-0.299-1.004-0.837c-0.488,0.313-0.209,0.538,0.154,0.708c-0.83-0.475-1.297-0.014-2.15-0.333
		c0.135,0.181,0.26,0.566,0.125,0.563c-1.254-0.406-0.551,0.622-1.4,0.765c-0.482-0.5,0.172-1.192-0.682-0.774
		c-0.225-0.145-0.271-0.325-0.242-0.505c0.441-0.685,0.711-1.365,0.84-1.574c0.305-0.494-0.307-0.926-0.496-1.832
		c-0.191-0.906,0.09-5.921,0.51-7.47c0.422-1.55-0.197-2.01-0.234-2.557c-0.035-0.547,0.846-0.365,1.031-3.261
		s1.115-7.59,1.406-8.415c0.289-0.825-0.467-0.791,0.291-2.645c0.758-1.853,1.223-3.081,1.365-4.989
		c0.143-1.91,0.932-2.058,1.096-3.343c0.164-1.286,0.279-2.759,0.781-4.737c0.502-1.977,2.066-5.988,1.504-8.541
		c-0.563-2.552-1.672-4.021-2.951-4.646c-1.279-0.625-0.875-0.998-0.809-1.079c0.066-0.082,3.252-1.088,5.08-0.965
		c1.83,0.124,3.215,0.743,4.639,0.959s3.482,0.307,4.113,0.124s0.416-1.392,0.309-2.945c-0.109-1.554,0.617-2.531,0.027-3.572
		c-0.592-1.042-0.637-1.594-3.055-1.098c-1.096,0.226-1.646-1.154-2.654-0.918c-1.012,0.237-1.387,0.423-2.531,0.184
		c-1.146-0.238-9.504-1.727-16.893,0.36c-1.201,0.34-1.547-0.264-4.354,0.059c-2.803,0.324-20.711,0.265-23,0.292
		s-18.477,0.247-20.371,0.285c-1.896,0.038-8.484-0.321-10.053,0.664c-1.568,0.984-2.91,1.067-3.162,5.627
		c-0.105,1.899-1.684,4.207-0.965,4.501c0.717,0.294,15.133-0.504,19.957-0.659c4.824-0.154,22.805-0.707,27.115-0.877
		s15.227,0.099,16.771-1.758c1.002-1.207,2.564,1.719,2.553,2.427c-0.012,0.708-0.693,5.704-1.559,8.66
		c0.828,1.75,0.275,1.516-0.133,2.943c-0.41,1.427-0.891,7.084-1.316,11.222c-0.426,4.139-3.422,20.692-0.098,27.544
		c0.162,0.336,0.254,0.696,0.33,1.056c-0.033-0.009-0.064-0.01-0.09,0.006c0.039,0.001,0.068,0.016,0.098,0.031
		c0.033,0.156,0.063,0.312,0.094,0.466c-0.055,0.242-0.193,0.518-0.369,0.697c-0.643-0.381-0.697,0.284-1.033,0.24l0.383,0.18
		c-0.131,0.489-0.451,0.425-0.898,0.58c-0.039-0.382,0.406-0.262,0.246-0.431c-0.496,0.862-1.123-0.892-1.814-0.312
		c-0.322-0.332-0.031-0.921-0.314-1.146c-0.777,0.636-0.84-0.672-1.656-0.146c0.234,0.659,0.275,0.498-0.299,1.14l1.342-0.464
		l-0.861,0.958c0.404,0.009,0.855-0.414,1.098-0.302c-0.41,0.538-0.369,0.374-0.176,0.92c-0.553-0.988-1.098,0.576-1.738-0.091
		l0.02-1.631c-0.963-0.728-1.711,0.836-2.961,0.427l0.4,0.283c-0.168,0.649-0.771,0.09-1.176,0.354
		c0.037-0.545-0.217-0.743-0.389-1.083c0.02,0.404-0.916-0.037-1.029,1.052l-0.559-0.719c-1.01-0.294-1.152,1.554-2.123,1.368
		c0.291-0.592-0.148-0.979,0.502-1.403c-0.324-0.006-0.615-0.105-0.621,0.273c-0.189-0.342-0.898,0.734-1.197,0.216
		c-0.137,0.239-0.182,0.811-0.545,0.765c-0.039-0.11,0.002-0.269,0.002-0.269c-0.002,0.269-0.57,0.366-0.252,0.97
		c-0.998-1.702-2.789,0.124-3.66-1.337c-0.707,0.183-1.559,0.358-2.201,0.398c0.041-0.164,0.002-0.272,0.123-0.215
		c-0.885-0.507-0.543,1.566-1.551,1c-0.516-0.881,0.533-0.477,0.213-0.811c-0.141-1.794-1.217,0.245-1.895-0.803l0.164-0.105
		c-0.52-0.61-1.266,0.68-2.111,0.551c0,0,0.041-0.158,0.004-0.271c-0.58,0.915-1.676,1.218-2.49,1.472
		c0.254-0.702,0.369-0.372,0.215-1.085c-0.365,0.101,0.107,1.146-0.621,1.345c-0.238-0.384-0.764-0.72-0.834-1.481l0.688-0.041
		c-0.352-0.985-0.889,0.034-1.252-0.138l0.045-0.43c-1.053,0.14-1.066,1.225-2.201,1.147l0.117,0.327
		c-0.619,1.074-0.52-0.605-1.137,0.194l-0.186-1.09c-0.408,0.263-1.432,1.054-2.164,1.259c0.416-0.809,1.273-1.222,1.803-1.702
		c-0.404-0.008-1.377,0.08-1.586,0.618c0.162-0.105,0.369-0.372,0.529-0.205c-0.498,0.857-1.15,1.279-1.959,1.26
		c0.145-2.113-2.102-0.533-2.688-2.174c-1.428,0.781-2.832-0.334-4.494-0.208c0.59,1.645-0.486,0.046-0.385,1.736
		c-0.381,0.106-0.527,0.081-0.566-0.026l0.215,0.069c-0.031-0.032,0.045-0.05,0.051-0.076l-0.244-0.189
		c0.121-0.393,0.609-1.096,0.039-1.476c0.434,0.557-0.391,0.794-0.314,1.264l-0.787-0.604c-0.277-0.492,0.301-0.373,0.266-0.752
		c-0.848-0.129-0.391-0.715-0.951-1.164c0.115,0.604-0.313,0.865-0.795,0.634l0.672,0.779c-1.186,0.898-1.027-1.417-2.223-0.527
		l0.375-0.532c-0.613,0.313-2.262-0.011-2.863,1.346c-0.107-0.195-0.252-0.657,0.018-0.779c-1.465-0.204-3.262,1.443-4.4,0.608
		l0.111-0.413c-0.273,0.119-0.477,0.776-0.818,0.36c0.018-0.171,0.111-0.412-0.016-0.437c-0.146,0.142-0.727,0.724-1.088,0.483
		l0.309-0.465c-1.43-0.541-2.193,1.132-3.393,1.415c0.004-1.216-1.121-1.611-1.682-1.808l0.02-0.172
		c-1.664-0.15-2.826,1.007-4.367,1.485c-0.957-1.32-3.24-0.552-4.777-1.293c0.234,0.222-0.039,0.948-0.313,1.07
		c-0.361-0.246-0.998,0.844-0.939-0.271l0.127,0.021c-0.27-1.093-1.012-0.802-1.592-0.833l-0.096,1.458
		c-1.514-2.122-3.967,0.78-4.793-1.121c-0.365,0.365-0.818,0.361-1.18,0.725l0.02-0.782c-1.014-0.2-1.519-0.298-2.77-0.112
		l0.254-0.559c-0.705-0.049-0.891,2.255-1.542,2.301l-0.196-1.167c-1.23,0.018-2.477-1.007-3.693,0.052
		c0.02-0.17,0.055-0.509,0.255-0.556c-0.58-0.031-2.242-0.791-2.032,0.812c-0.014-1.043-1.27-0.102-1.936,0.358l0.104-0.77
		c-0.561,0.983-0.579,1.252-1.363,1.524c-0.158-0.085-0.164-0.466-0.011-0.46c-0.503-0.218-0.432,0.746-1.138,0.36l0.279-0.492
		c-0.637-0.06-0.586,0.204-0.938,0.777c-0.4,0.309-1.208-0.194-1.301-0.89c-0.086,0.424-0.435,0.992-0.81,0.791
		c-0.051-0.263,0.085-0.426,0.154-0.506c-1.065-0.524-1.583,0.895-2.316,0.139c-0.016-0.255-0.063-0.382-0.124-0.459
		c0.846,0.019,1.527,0.061,1.463,0.117c0-0.71-0.683-0.834-0.139-1.814c-0.549,0.535-1.486,1.698-2.153,1.364
		c-0.032-0.069-0.063-0.136-0.088-0.246l0.069-0.08c-0.154-0.071-0.292-0.005-0.421,0.115c-0.212-0.117-0.348-0.203-0.552-0.213
		c-0.079-0.588-0.784-0.317-1.124-0.346c0.028,0.777-0.418,0.652,0,1.293c-0.054-0.055,0.064-0.093,0.291-0.125
		c0.051-0.023,0.111-0.034,0.145-0.08c-0.006,0.02-0.015,0.043-0.023,0.068c0.224-0.022,0.516-0.04,0.848-0.052
		c-0.27,0.394-0.551,0.726-0.928,0.295c-0.175,0.499-0.368,1.012-0.476,1.253c-0.466-1.083-1.365-1.668-1.49-2.336
		c-1.041,0.436-2.452,0.287-3.105,1.746c-0.296,0.188-0.34-0.418-0.451-0.647c0.171-0.146,0.374-0.124,0.466-0.333
		c-0.591,0.374-1.752,0.146-1.894,1.165c-0.746-0.46,0.419-0.938-0.605-0.771l0.138-0.312c-2.016-1.629-3.276,2.601-5.511,0.51
		c0.155,0.128,0.232,0.188,0.264,0.358c-2.547-0.921-5.25,0.866-7.763-0.596c-0.715-0.295-0.792,0.356-1.228,0.851l-0.155-0.834
		l-0.746,0.962c-1.057,0.705-1.831-2.047-3.169-0.714l0.173,0.562c-0.481-0.106-1.523,0.331-1.443-0.315
		c-0.049,0.103-0.157,0.585-0.345,0.292l-0.015-0.436l-1.181,0.748c-0.916-0.316,0.144-1.732-1.193-1.817
		c-0.497,0.167-1.414,1.271-1.227,1.563c0.2,0.021,0.512,0.272,0.527,0.709l-0.455,0.227c-0.082,1.287-0.431,2.604,0.684,3.501
		l0.777-0.787l0.25,0.624l-0.654,0.039c0.371,0.587,0.606,0.068,0.87-0.289c0.062,0.332,0.171,0.564,0.326,0.687l0.763-1.228
		c0.092,0.503-0.342,0.998,0.169,1.276c0.357-0.571-0.343-1.128,0.249-1.503c0.372,0.584,0.263,1.061,0.699,0.562
		c0.061,0.331-0.031,0.542-0.204,0.688c0.389-0.397,1.028-0.167,1.228-0.852c0.387,0.721,1.311-0.188,1.273,1.029
		c0.122-0.291,0.684-0.955,1.041-1.006c-0.652,1.458,1.335,0.086,1.162,1.648c0.482-1.311,1.742-0.582,2.597-1.309
		c-0.048,0.104-0.142,0.315-0.218,0.248c0.481,0.109,0.621,0.504,0.93,0.751c0.062-1.083,0.81-1.33,1.213-1.998
		c0.59,1.044-0.358,1.271-0.173,2.274c-0.029-0.877,1.024-0.875,0.824-1.606c0.45,0.646,0.388,0.313,0.62,1.211
		c0.08-1.354,0.42-0.229,0.794-1.061c0.652,0.667,0.167,1.267,0.884,0.856c0.341,0.414-0.296,0.894-0.296,0.894
		c0.73,0.022,0.343-0.999,0.498-1.584c0.871-0.29,0.403,0.751,0.699,1.273c0.544-0.27,0.96-1.207,1.367-1.167
		c0.03,0.168,0.108,0.229,0.016,0.44c0.575-0.812,1.706-0.04,2.376-1.059c0.05,0.09,0.075,0.176,0.088,0.254
		c-0.109-0.511-0.125-1.031-0.103-1.401c0.327-0.018,0.607-0.645,0.729,0.022c-0.201-0.02-0.217,0.249-0.311,0.458l0.343-0.289
		c0.309,0.958-0.468,0.331-0.468,1.041c0.668-0.313,1.447-1.106,1.959-0.835c0.107,0.938-1.197,0.315-0.514,1.15l-0.792-0.358
		c0.605,1.479-0.481-0.104,0.075,1.479c1.042,0.272,1.167-0.478,2.206-0.204c0.234-0.521-0.077-0.771,0.157-1.292
		c1.479-0.937,1.164,2.359,2.25,1.109c0.281-0.625,0.391-1.812,1.164-1.184l-0.264,1.061c1.009,0.105,0.576-1.525,1.633-0.811
		c-0.188,0.417-0.793,0.351-0.641,0.477c0.685,0.838,0.485-0.601,1.011-0.601l0.109,0.939c1.075-0.147,2.258-0.826,3.449-0.997
		c-0.066,0.279-0.27,0.573,0.008,0.86c1.501-0.47,3.205,0.115,4.652,0.671l0.555-0.811c0.128,0.009,0.238,0.366,0.1,0.523
		c0.563,0.308,0.028-0.514,0.299-0.833c0.322-0.057,0.426,0.466,0.222,0.709c0.995-0.687,2.837-1.48,3.886-0.612l-0.205,0.241
		c0.817,0.329,0.922-1.662,1.68-0.906l-0.145,0.144c1.773,0.352,3.732-0.391,5.086,0.833c0.256-1.168,1.754,0.521,1.868-1.108
		c1.013,0.807,0.723,1.099,2.148,1.641c0.382,0.075,0.567-1.017,1.038-1.187l0.012,0.852l0.639-0.894l0.341,1.018l0.442-0.218
		c-0.176-0.05-0.375-0.382-0.348-0.627c0.689-0.386,1.682,0.593,1.699,1.029l1.631-0.72c-0.027,0.26-0.191,0.39-0.361,0.533
		c0.611-0.479,0.053,0.984,0.793,0.246c-0.107-0.193,0.057-0.507,0.076-0.679c0.396,0.514,1.303,0.519,1.975,0.302l-0.129,0.587
		c1.209,0.149,2.551-0.282,3.91-0.271c-0.488-0.273-0.375-1.291,0.023-1.388l0.158,0.9c0.258-0.557-0.416-0.34,0.113-1.021
		c0.506,0.104,0.34,1.023,0.049,1.316l0.617-0.313c0.035,0.269-0.109,0.41-0.146,0.753c0.254-0.559,1.066,0.903,1.432-0.068
		l0.033,0.268c1.357,0.007,1.975-0.302,3.082-0.347c0.02-0.777,0.453-0.604,0.783-1.232c0.813,0.249,1.715,0.859,2.695,0.792
		c0.688-0.386,0.199-0.658,0.51-1.119c0.051,0.707,1.029,0.641,0.521,1.149c1.176-0.116,1.502-0.141,2.988-0.716
		c-0.16-0.29-0.342-0.416-0.248-0.658c0.27-0.116,0.613,0.297,0.574,0.637l-0.07,0.074c1.67-1.061,3.852,2.062,5.18,0.587
		l-0.074,0.073l1.379-0.768c0.635,0.122-0.381,0.531,0.088,0.97c1.488-1.181,2.35,0.17,3.574-0.616
		c0.768,1.688,2.492,0.551,3.801,0.758c-1.686,2.612-3.053,6.069-4.795,9.086c-1.332,2.305,0.016,3.434-2.846,10.638
		c-2.859,7.204-2.066,8.552-2.125,9.542c-0.059,0.992,1.551,1.258,1.711,1.984c0.158,0.729-0.197,5.879-1.307,8.949
		s-1.215,5.842-0.818,7.65c0.398,1.807-1.305,5.903-1.979,8.403c-0.676,2.501-1.902,8.247,0,13.168
		c0.283,0.735,2.119,0.514,4.324,2.276c1.418,1.135,6.76-0.068,8.041-0.205c1.281-0.136,5.373-0.545,6.531-0.915
		c1.16-0.37,3.811-1.413,5.229-1.897c1.416-0.484,6.607-1.947,7.809-2.982c1.201-1.037,1.568-1.46,2.107-2.224
		s2.373-3.402,3.236-4.035c0.863-0.632,0.863-2.935,0.633-3.567s-1.152-0.748-1.727-1.208c-0.576-0.46-1.611,0.06-2.32,0.696
		s-2.354,1.469-2.578,1.801c-0.223,0.333-0.637,1.213-1.158,1.376c-0.521,0.162-9.059,2.439-10.676,2.702
		c-1.617,0.26-7.137,1.144-8.523,0.708s-1.611-2.801-1.492-4.182c0.117-1.38,1.537-10.483,2.547-13.093
		c1.012-2.611,0.891-5.187,1.18-5.941c0.291-0.754,2.646-7.179,2.807-8.436c0.158-1.258,0.65-5.065,1.686-6.72
		c1.037-1.654,1.197-4.993,1.266-5.625c0.066-0.632,0.668-5.64,1.014-6.126c0.344-0.486,0.947-1.097,1.035-1.535
		s0.779-3.642,0.516-4.292s0.83-3.104,0.961-3.541c0.092-0.301,0.508-1.773,0.564-2.959c0.174-0.384,0.412-0.586,0.979-0.085
		l-0.375,0.913c2.119-1.094,4.332,0.037,6.406-0.891c-0.123,0.21-0.127,0.484-0.33,0.48c0.439,0.663,1.621,0.033,1.629-0.508
		c0.322,0.062,0.074,0.489,0.273,0.764c0.439,0.391,1.104-0.846,1.338-0.187c0.039,0.108-0.125,0.215-0.205,0.265
		c0.287-0.32,1.334,0.083,1.061-0.682c0.779,0.365,1.49-0.34,2.111,0.113c0.404-0.855,1.332,0.412,1.461-0.798
		c-0.055,1.25,1.365,1.008,1.857,0.42c-0.166,0.378,0.428,0.392,0.236,0.915c0.561-0.018,1.076-0.25,0.977-0.892
		c1.035,1.495,2.082-1.203,2.664,0.713c1.67-0.671,3.215-1.125,4.715-1.418c-0.055,1.245-1.66,0.124-1.596,1.432
		c1.426-0.514,2.246-1.583,3.658-1.282c0.367,0.17-0.207,0.541-0.33,0.753c1.422-0.513,2.752,0.113,4.018-0.565
		c-0.004,0.116-0.141,0.243-0.27,0.338c0.25-0.041,0.58,0.183,0.553-0.383l-0.244,0.153c-0.398-0.822,0.99-1.716,1.035-2.151
		c-0.422,1.623,1.252,0.408,0.578,2.459c0.164-0.107,0.371-0.375,0.332-0.753c0.244,0.11,0.322,0.331,0.074,0.762
		c0.895-0.308,0.576-0.91,1.387-0.897c-0.002,0.274-0.166,0.38-0.25,0.703c0.41-0.534,0.822-1.069,1.506-0.837
		c-0.041,0.165,0.039,0.38-0.166,0.376c1.176-0.083,2.004-1.423,3.293-0.907c-0.381,1.191,0.439,0.392,0.508,1.423l0.691-0.308
		l-0.277-0.5c0.607,0.018,1.145-0.733,1.666-0.396l-0.451,0.425l1.139-0.195l-0.645-0.392c0.613-0.531-0.3-1.305,0.509-1.018
		C165.147,81.605,166,81.512,166,82.12c0,0,0,0,0,0.002c1-0.328,0.843-0.673,1.292-0.418c0.117,0.33,0.023,1.141,0.099,1.36
		c0.297-0.862,1.48-0.24,1.855-1.158c-0.125,0.216-0.102,0.757-0.061,0.868l0.265-0.701c0.28,0.224,0.329,0.333,0.282,0.764
		c0.846,0.128-0.264-1.308,0.74-0.745c-0.08,0.057-0.04,0.162-0.203,0.268c1.009,0.293,1.949-0.445,2.876-0.1
		c0.273,1.038-0.81,0.254-0.495,1.13c1.334-0.188,2.766-1.244,4.061-1l-0.242-0.114c0.18-1.465,0.963,0.724,1.617,0.034
		c-0.16,0.108-0.209,0.813-0.166,0.649c0.885,0.235,1.811-0.36,3.152-0.821l-0.166,0.376c0.521,0.336,1.375,0.194,1.938,0.365
		c0.168-0.375,0.49-0.314,0.295-0.862c1.738,2.143,3.314-1.149,4.859,0.637c-0.186,0.004-0.439,0.329-0.295,0.332l1.314-0.347
		c-0.104-0.638-0.172-0.387-0.447-0.884c0.166-0.378,0.537-0.672,0.861-0.672c-0.59,0.423,0.006,1.025,0.26,1.381
		c-0.041-0.196,0.047-0.412,0.025-0.61c0.686,1.136,0.113-1.284,1.051-0.519l-0.049,0.335c0.35-0.171,0.672-0.614,1.051-0.519
		c0.158,0.738-0.373,0.345-0.396,0.952c0.531-0.042,1.047-1.398,1.529-0.663c-0.227,0.206-0.551,0.209-0.777,0.414
		c0.525,0.867,0.586,0.646,0.975,0.785l-0.039-0.02l0.9,0.393l-0.23-0.234c0.666-1.925,1.354-0.353,2.25-1.613
		c-0.871,1.193-0.145,0.69-0.211,1.527c0.229,0.232,0.576,0.492,0.477,0.728c0.424-0.675,0.707,0.532,1.305-0.455
		c0.027,0.27,0.453,0.026,0.357,0.703c0.551-0.212-0.131-0.469-0.084-0.807c0.848-0.919,1.994,1.116,3.213-0.146
		c1.053-0.52,1.246-1.429,2.223-1.881c0.33,0.431-0.27,0.981-0.27,0.981c0.531,0.396,0.932,0.324,1.432,0.016
		c-0.1,0.235,0.004,0.434,0.156,0.736c0.402-0.071,0.27-0.981,0.799-0.584c-0.09,0.301-0.207,0.781-0.4,1.083
		c0.473-0.248,0.941-0.751,1.432-0.994c0.131,0.47-0.297,0.712-0.469,1.019C206.49,82.877,207.367,82.664,207.537,81.92z
		 M52.354,77.926c-0.007,0.026-0.019,0.067-0.027,0.095c0.022-0.148,0.046-0.287,0.09-0.39c0.226-0.11,0.302,0.042,0.333,0.202
		C52.644,77.846,52.519,77.873,52.354,77.926z M54.014,83.039c-0.147,0.019-0.272,0.034-0.352,0.044
		c0.074-0.012,0.175-0.029,0.352-0.059C54.014,83.031,54.014,83.037,54.014,83.039z M54.825,82.981
		c-0.05-0.268,0.004-0.544,0.148-0.53c-0.078,0.179,0.259,0.333,0.473,0.56C55.271,82.981,55.054,82.976,54.825,82.981z"/>
	<path fill="#FFFFFF" d="M52.01,78.649c-0.033,0.018-0.051,0.05-0.094,0.057c0.046,0.069,0.09,0.126,0.135,0.175
		c0.027-0.083,0.055-0.167,0.08-0.244C52.09,78.641,52.047,78.646,52.01,78.649z"/>
	<path fill="#FFFFFF" d="M181.84,79.893c-0.02-0.037-0.02-0.062-0.033-0.093l-0.029-0.018
		C181.801,79.813,181.824,79.844,181.84,79.893z"/>
	<polygon fill="#FFFFFF" points="75.218,84.498 75.215,84.302 75.09,84.473 	"/>
	<path fill="#FFFFFF" d="M189.691,82.465c0.016,0.068,0.047,0.139,0.105,0.199C189.791,82.613,189.746,82.542,189.691,82.465z"/>
	<path fill="#FFFFFF" d="M193.1,82.639l0.48,0.276C193.373,82.758,193.221,82.684,193.1,82.639z"/>
	<path fill="#FFFFFF" d="M195.719,83.024c0.033-0.136,0.041-0.239,0.051-0.333l-0.004-0.005L195.719,83.024z"/>
	<path fill="#FFFFFF" d="M154.074,83.937c-0.035,0.004-0.07,0.014-0.102,0.035C153.736,84.122,153.896,84.063,154.074,83.937z"/>
	<path fill="#FFFFFF" d="M166.068,82.489c0.221,0.059,0.393,0.075,0.398-0.367C166.336,82.263,166.207,82.401,166.068,82.489z"/>
	<path fill="#FFFFFF" d="M140.236,84.871c0-0.007,0-0.005,0.002-0.014c-0.031,0.002-0.057,0-0.088,0L140.236,84.871z"/>
	<path fill="#FFFFFF" d="M165.492,82.476c0.221,0.155,0.406,0.122,0.576,0.014C165.887,82.438,165.674,82.357,165.492,82.476z"/>
	<path fill="#FFFFFF" d="M207.195,83.408c-0.002-0.051,0.006-0.093,0.016-0.125l-0.141,0.093L207.195,83.408z"/>
	<path fill="#FFFFFF" d="M207.211,83.284l0.141-0.092C207.287,83.192,207.23,83.198,207.211,83.284z"/>
	<path fill="#FFFFFF" d="M207.646,82.996l-0.295,0.196C207.453,83.194,207.58,83.218,207.646,82.996z"/>
	<path fill="#FFFFFF" d="M203.604,83.017l-0.041,0.282C203.586,83.241,203.598,83.15,203.604,83.017z"/>
	<path fill="#FFFFFF" d="M202.549,83.099c0.252,0.064,0.631,0.601,0.982,0.424l0.031-0.224
		C203.398,83.718,202.789,82.624,202.549,83.099z"/>
	<path fill="#FFFFFF" d="M199.078,79.068c-1.111-0.895,0.23,0.671-0.928,0.55l0.885,0.225
		C198.881,79.543,198.678,79.141,199.078,79.068z"/>
	<path fill="#FFFFFF" d="M195.414,79.184c0.475-0.14-0.006-0.436,0.02-0.605C195.133,78.852,195.059,78.921,195.414,79.184z"/>
	<path fill="#FFFFFF" d="M175.631,79.181l0.045-0.707C175.311,78.575,175.674,78.748,175.631,79.181z"/>
	<polygon fill="#FFFFFF" points="172.203,83.271 172.373,82.624 171.848,82.832 	"/>
	<polygon fill="#FFFFFF" points="169.613,77.8 169.773,77.699 169.162,77.955 	"/>
	<path fill="#FFFFFF" d="M136.387,78.051l0.109,0.871C136.744,78.765,136.795,77.787,136.387,78.051z"/>
	<path fill="#FFFFFF" d="M122.041,78.937c-0.156-0.435-0.559-0.714-0.809-0.287C121.555,78.709,121.877,79.049,122.041,78.937z"/>
	<polygon fill="#FFFFFF" points="79.311,77.228 78.766,77.471 79.021,77.52 	"/>
	<path fill="#FFFFFF" d="M97.891,171.53l-0.057,0.003l0.111-0.004C97.932,171.529,97.92,171.529,97.891,171.53z"/>
	<path fill="#FFFFFF" d="M97.488,171.541c0.041-0.001,0.076-0.002,0.109-0.002c-0.021,0-0.055,0-0.098,0.001
		C97.494,171.541,97.492,171.541,97.488,171.541z"/>
	<path fill="#FFFFFF" d="M97.623,171.539c0.051-0.001,0.051-0.001,0.164-0.006c-0.084,0.003-0.137,0.004-0.189,0.006
		C97.617,171.539,97.629,171.539,97.623,171.539z"/>
	<path fill="#FFFFFF" d="M97.426,171.539c-0.092,0.004-0.199,0.016-0.141,0.021c0.111-0.01,0.086-0.008,0.203-0.019
		c-0.021,0.001-0.041,0.001-0.068,0.002C97.391,171.542,97.418,171.539,97.426,171.539z"/>
	<path fill="#FFFFFF" d="M84.932,172.095c0.035-0.009,0.049-0.026,0.049-0.041C84.947,172.068,84.922,172.081,84.932,172.095z"/>
	<path fill="#FFFFFF" d="M89.58,171.689c-0.004,0.034,0.068,0.02,0.133,0.022L89.58,171.689z"/>
	<path fill="#FFFFFF" d="M96.363,171.607c0.021-0.003,0.043-0.006,0.07-0.008l-0.066,0.004L96.363,171.607z"/>
	<path fill="#FFFFFF" d="M91.814,171.544l0.039-0.001c0.012-0.01,0.021-0.021,0.031-0.032L91.814,171.544z"/>
	<path fill="#FFFFFF" d="M54.194,194.817c-0.029-0.027-0.047-0.045-0.072-0.069C54.157,194.795,54.184,194.824,54.194,194.817z"/>
	<path fill="#FFFFFF" d="M82.553,172.021l0.008,0.002C82.596,171.999,82.574,172.005,82.553,172.021z"/>
	<path fill="#FFFFFF" d="M69.269,176.502c0.288,0.158-0.037,0.43,0.337,0.574C69.52,176.982,69.541,176.56,69.269,176.502z"/>
	<path fill="#FFFFFF" d="M77.896,173.354c-0.037-0.007-0.059-0.032-0.096,0.009c0.008,0.01,0.014,0.016,0.021,0.021
		C77.83,173.352,77.85,173.333,77.896,173.354z"/>
	<polygon fill="#FFFFFF" points="76.541,173.734 76.582,173.771 76.62,173.748 	"/>
	<path fill="#FFFFFF" d="M56.787,191.54c-0.123-0.082-0.249-0.184-0.371-0.286C56.689,191.5,56.645,191.74,56.787,191.54z"/>
	<path fill="#FFFFFF" d="M96.32,171.607l0.047-0.004c0.004-0.002,0.004-0.004-0.004-0.006
		C96.354,171.602,96.342,171.605,96.32,171.607z"/>
	<path fill="#FFFFFF" d="M77.547,175.295c-0.061-0.063-0.113-0.093-0.164-0.106c-0.002,0.02-0.006,0.037-0.004,0.063L77.547,175.295
		z"/>
	<path fill="#FFFFFF" d="M97.066,171.758h0.102c-0.014,0-0.049-0.007-0.09-0.017C97.072,171.746,97.076,171.758,97.066,171.758z"/>
	<path fill="#FFFFFF" d="M96.354,171.589c0.047-0.001,0.098-0.004,0.152-0.006c0.012-0.004,0.031-0.008,0.041-0.01
		C96.416,171.569,96.422,171.582,96.354,171.589z"/>
	<path fill="#FFFFFF" d="M68.225,180.175c-0.004-0.009-0.013-0.014-0.018-0.021c-0.008,0.021-0.023,0.033-0.027,0.06L68.225,180.175
		z"/>
	<polygon fill="#FFFFFF" points="96.354,171.758 96.352,171.75 96.346,171.758 	"/>
	<path fill="#FFFFFF" d="M96.248,171.571c-0.145-0.013-0.129,0.002-0.252-0.015c-0.016-0.002-0.01-0.009,0.004-0.01l-0.141,0.007
		c0.02-0.005,0-0.016,0.02-0.02c-0.225-0.011-0.373,0.026-0.463-0.001l0.021-0.002c-0.354,0.016-0.033,0.028-0.297,0.07l-0.18-0.08
		l-0.035,0.035c-0.035-0.001-0.107-0.003-0.094-0.018c-0.135,0.025,0.023,0.015-0.055,0.04c-0.178-0.034-0.482,0.024-0.523-0.043
		c-0.063,0.034,0.166,0.023-0.02,0.049c-0.055-0.072-0.215,0.012-0.375-0.013c0.047-0.045,0.199-0.027,0.037-0.06
		c-0.094,0.075-0.311-0.004-0.445,0.013c-0.002,0.02-0.033,0.028-0.076,0.036c0.02-0.021,0.045-0.031,0.076-0.036
		c0-0.01-0.006-0.021-0.018-0.033c-0.037-0.002-0.049,0.047-0.061,0.069c-0.102,0.015-0.283,0.011-0.439,0.032
		c0.014-0.022-0.428-0.021-0.641-0.044l0.006-0.013c-0.037,0.08-0.254,0.074-0.412,0.099c0.004-0.052,0.031-0.072,0.115-0.097
		l-0.148,0.004c-0.033,0.028-0.08,0.044-0.176,0.058l0.033-0.066c-0.197,0.007-0.393,0.092-0.65,0.053
		c-0.01,0.069,0.213,0.175-0.051,0.236c-0.014-0.036-0.027-0.099,0.041-0.117c-0.021,0.006-0.08,0.034-0.127,0.021l0.104-0.067
		c-0.117-0.022-0.057,0.055-0.15,0.054c-0.002-0.054-0.072-0.035-0.061-0.078c0.023-0.007,0.082,0.019,0.117-0.004
		c-0.105-0.005-0.236-0.032-0.279-0.073c0.01,0.031,0.006,0.073-0.072,0.084c-0.197,0.011-0.072-0.065-0.189-0.092
		c-0.045,0.04-0.176,0.009-0.172,0.096c-0.059,0.004-0.07-0.036-0.096-0.059c-0.1,0.046-0.477,0.044-0.354,0.133l0.027,0.019
		l-0.018,0.019c-0.326,0-0.701-0.011-1.029,0.058l-0.004-0.043c-0.193,0.055-0.439,0.054-0.572,0.145
		c-0.059,0.006-0.146-0.056-0.125-0.103c-0.148,0.038-0.162,0.083-0.389,0.037c0.146-0.08-0.059-0.056,0.152-0.062
		c-0.201-0.019-0.254-0.08-0.455,0.043c0.063-0.105-0.162-0.118-0.254-0.081l0.148,0.064c-0.104,0.022-0.197,0.017-0.293,0.021
		l0.035-0.144c-0.428-0.135-0.691,0.379-1.039,0.113c-0.092,0.116,0.23,0.049,0.15,0.182c-0.188,0.003-0.412-0.195-0.469-0.189
		c-0.27-0.063-0.207,0.252-0.48,0.224c0.043,0.054,0.096,0.2-0.094,0.281c-0.188,0.005-0.264-0.217-0.154-0.275
		c0.043-0.011,0.068,0.006,0.07,0.025c0.055-0.028,0.131-0.062,0.049-0.116l-0.016,0.061c-0.102-0.048-0.357-0.016-0.313-0.119
		c-0.133,0.072-0.045,0.104,0.064,0.124c-0.254-0.062-0.375,0.038-0.631,0.005c0.045,0.029,0.094,0.097,0.055,0.102
		c-0.373-0.034-0.141,0.138-0.377,0.204c-0.154-0.073,0.01-0.238-0.221-0.118c-0.16-0.041-0.063-0.164-0.01-0.225
		c-0.203,0.157-0.436-0.02-0.568-0.027l0.109-0.069c-0.066,0.041-0.123,0.049-0.184,0.057l0.094,0.123
		c-0.074-0.013-0.133-0.005-0.143-0.061c-0.055,0.099,0.096,0.213-0.023,0.355c-0.104-0.055-0.264,0.121-0.33-0.056
		c0.301,0.016-0.068-0.178,0.172-0.242c-0.043,0.027-0.102,0.035-0.176,0.021c-0.014-0.018,0.004-0.038,0.02-0.052
		c-0.311-0.123-0.088,0.225-0.377,0.265c0.016-0.11-0.107-0.188-0.148-0.159c0.115-0.015,0.09,0.165,0,0.264
		c-0.201-0.054-0.188,0.093-0.285,0.1l0.117,0.021c-0.014,0.112-0.109,0.115-0.229,0.171c-0.029-0.082,0.104-0.077,0.049-0.107
		c-0.1,0.219-0.365-0.151-0.533,0.024c-0.107-0.057-0.055-0.207-0.148-0.241c-0.188,0.19-0.275-0.105-0.482,0.062
		c0.105,0.142,0.105,0.099-0.021,0.285l0.357-0.189l-0.193,0.274c0.115-0.023,0.221-0.148,0.295-0.139
		c-0.088,0.148-0.084,0.108,0,0.223c-0.211-0.193-0.279,0.205-0.496,0.091l-0.088-0.385c-0.318-0.117-0.439,0.303-0.82,0.281
		l0.133,0.045c-0.006,0.169-0.213,0.069-0.311,0.16c-0.025-0.138-0.111-0.171-0.184-0.246c0.033,0.1-0.266,0.045-0.221,0.328
		l-0.211-0.147c-0.307,0.001-0.209,0.49-0.492,0.521c0.035-0.179-0.119-0.245,0.031-0.406c-0.09,0.024-0.182,0.021-0.152,0.12
		c-0.082-0.076-0.195,0.264-0.32,0.15c-0.02,0.074,0.016,0.23-0.09,0.248c-0.02-0.026-0.021-0.072-0.021-0.072
		c0.021,0.072-0.127,0.145,0.012,0.279c-0.426-0.378-0.762,0.267-1.141-0.068c-0.18,0.115-0.396,0.25-0.568,0.322
		c-0.006-0.05-0.027-0.077,0.012-0.073c-0.298-0.061,0.016,0.503-0.318,0.439c-0.238-0.205,0.094-0.19-0.029-0.256
		c-0.236-0.508-0.309,0.189-0.615-0.053l0.033-0.047c-0.217-0.131-0.272,0.32-0.521,0.365c0,0-0.009-0.051-0.032-0.082
		c-0.048,0.331-0.299,0.556-0.482,0.726c-0.025-0.244,0.051-0.155-0.086-0.356c-0.085,0.072,0.18,0.338,0.014,0.484
		c-0.114-0.091-0.301-0.134-0.427-0.362l0.181-0.091c-0.23-0.264-0.237,0.111-0.359,0.099l-0.048-0.139
		c-0.27,0.161-0.114,0.504-0.43,0.608l0.081,0.09c0,0.413-0.234-0.138-0.271,0.197l-0.22-0.322
		c-0.068,0.136-0.208,0.522-0.362,0.685c-0.027-0.315,0.131-0.559,0.196-0.779c-0.108,0.048-0.354,0.201-0.319,0.402
		c0.024-0.055,0.035-0.168,0.105-0.135c0.008,0.34-0.089,0.563-0.301,0.662c-0.328-0.706-0.643,0.099-1.099-0.361
		c-0.224,0.462-0.804,0.291-1.222,0.568c0.497,0.472-0.117,0.085,0.266,0.643c-0.074,0.09-0.116,0.101-0.148,0.072
		c-0.002,0-0.004-0.001-0.006-0.002l0.001,0.001l-0.513-0.163c-0.178-0.125,0.012-0.185-0.08-0.309
		c-0.244,0.087-0.246-0.189-0.492-0.257c0.164,0.189,0.116,0.342-0.06,0.337l0.349,0.161c-0.097,0.493-0.583-0.328-0.688,0.162
		l-0.025-0.241c-0.084,0.204-0.598,0.339-0.41,0.914c-0.074-0.05-0.223-0.188-0.186-0.274c-0.422,0.166-0.437,1.044-0.934,0.938
		l-0.082-0.165c-0.037,0.088,0.089,0.354-0.105,0.264c-0.041-0.063-0.084-0.165-0.121-0.152c0.002,0.075,0.021,0.382-0.131,0.358
		l-0.053-0.22c-0.495,0.048-0.213,0.78-0.41,1.092c-0.348-0.441-0.734-0.395-0.922-0.371l-0.047-0.067
		c-0.439,0.228-0.368,0.857-0.577,1.307c-0.626-0.337-0.913,0.344-1.501,0.313c0.124,0.049,0.291,0.379,0.268,0.478
		c-0.16-0.031,0.045,0.517-0.301,0.064l0.037-0.015c-0.414-0.385-0.493-0.137-0.637-0.044l0.455,0.602
		c-1.051-0.578-0.635,1.045-1.471,0.422c0.041,0.217-0.063,0.297-0.018,0.514l-0.271-0.326c-0.304,0.103-0.457,0.152-0.679,0.458
		l-0.143-0.279c-0.186,0.105,0.611,1.104,0.482,1.243l-0.473-0.454c-0.271,0.235-0.949,0.026-0.827,0.699
		c-0.061-0.077-0.181-0.227-0.153-0.283c-0.144,0.093-0.826,0.069-0.154,0.719c-0.409-0.445-0.332,0.188-0.299,0.511l-0.282-0.353
		c0.262,0.528,0.368,0.651,0.31,0.922c-0.08-0.008-0.283-0.236-0.15-0.198c-0.296-0.057,0.19,0.411-0.135,0.378l-0.14-0.27
		c-0.162,0.099-0.043,0.204,0.115,0.523c0.042,0.215-0.336,0.151-0.645-0.139c0.156,0.204,0.317,0.523,0.154,0.509
		c-0.121-0.106-0.159-0.206-0.177-0.255c-0.449-0.027,0.036,0.707-0.439,0.513c-0.111-0.111-0.175-0.159-0.221-0.183
		c0.19-0.155,0.355-0.269,0.365-0.23c-0.296-0.316-0.499-0.241-0.79-0.782c0.101,0.342,0.39,1.044,0.104,1.023
		c-0.036-0.024-0.072-0.049-0.124-0.093l-0.019-0.05c-0.063-0.002-0.066,0.054-0.043,0.133c-0.096-0.012-0.163-0.024-0.212,0.011
		c-0.27-0.251-0.309,0.006-0.396,0.058c0.343,0.349,0.193,0.377,0.562,0.589c-0.036-0.016-0.026-0.056,0.009-0.114
		c0.001-0.02,0.009-0.037-0.003-0.063l0.024,0.035c0.039-0.054,0.095-0.118,0.161-0.188c0.111,0.229,0.195,0.435-0.072,0.313
		c0.174,0.261,0.354,0.53,0.442,0.662c-0.568-0.4-1.02-0.494-1.342-0.776c-0.035,0.4-0.41,0.604,0.108,1.408
		c0.022,0.145-0.261-0.128-0.389-0.213c-0.029-0.102,0.024-0.131-0.05-0.246c0.042,0.289-0.313,0.408,0.124,0.912
		c-0.37-0.069-0.34-0.521-0.483-0.243l-0.114-0.173c-0.593-0.187-0.474,0.276-0.376,0.723c0.101,0.45,0.18,0.885-0.552,0.608
		c0.094,0.03,0.138,0.043,0.227,0.118c-0.981,0.065-0.655,1.483-1.909,1.27c-0.268-0.003-0.045,0.269,0.122,0.565
		c-0.014,0.007-0.027,0.016-0.041,0.022l-0.361-0.302l0.209,0.389c-0.147,0.083-0.292,0.169-0.44,0.259
		c-0.344-0.127-0.674-0.228-0.456,0.267l0.012,0.01c-0.306,0.193-0.584,0.38-0.813,0.537c-0.202-0.18-0.398-0.323-0.548-0.218
		c-0.006,0.083,0.073,0.277,0.179,0.478c-0.029,0.021-0.069,0.05-0.09,0.065c-0.417,0.313-0.868,0.988-1.296,1.529
		c-0.428,0.542-0.821-0.176-3.061,1.711c-0.936,0.788-1.894,1.145-2.845,1.45c-0.949,0.306-6.478,3.097-13.677,0.872
		c-7.201-2.225-4.653-2.48-8.122-5.287c-1.265-1.023-0.201-2.459-0.998-3.413c-0.798-0.955-0.927-1.066-1.115-5.841
		s1.354-11.377,5.59-14.578c4.235-3.201,12.634-2.843,19.003-5.762c0.941-0.432,3.702,0.268,5.256-0.082s4.146,2.231,1.556,4.826
		c-1.325,1.326-1.007,6.869-1.109,8.73c-0.101,1.861,0.865,2.794,1.166,3.881c0.172,0.624-0.001,1.604,1.552,1.144
		s4.177-0.911,4.445-1.419c0.268-0.508,1.798-5.767,1.804-7.208c0.006-1.442,0.012-6.044-0.385-7.455
		c-0.397-1.412-1.349-6.737-5.111-7.931c-2.305-0.731-1.546,0.146-3.278-0.149c-1.732-0.295-5.159,0.296-6.124,0.627
		c-0.966,0.331-8.682,2.826-11.727,3.024c-3.044,0.197-6.9,1.809-7.476,1.752c-0.576-0.059-2.992,2.538-4.833,4.29
		c-1.841,1.753-3.475,5.368-4.7,6.293c-1.226,0.927-3.897,9.216-3.555,9.835c0.342,0.618,0.414,2.085-0.24,3.177
		c-0.653,1.092,0.199,1.928,0.461,3.453c0.263,1.527,0.101,1.546,1.575,3.123c0.36,0.386-0.198,1.394,0.242,1.981
		c0.44,0.586,5.243,6.903,10.652,7.943c4.255,0.818,3.492-0.03,4.137,0.225c0.645,0.255,9.094,0.594,13.871-1.478
		c4.135-1.794,8.444-5.125,10.817-6.966c0.2,0.142,0.707,0.021,0.707,0.021l-0.1,0.159c0.387,0.221,0.148-0.095,0.005-0.331
		c0.191,0.155,0.336,0.251,0.43,0.279l-0.407-0.619c0.013-0.009,0.023-0.018,0.036-0.026c0.208,0.214,0.371,0.446,0.568,0.473
		c-0.146-0.224-0.356-0.362-0.523-0.508c0.038-0.028,0.075-0.057,0.111-0.085c0.147,0.103,0.199,0.129,0.094-0.072
		c0.001,0,0.003-0.002,0.004-0.003c0.178,0.149,0.271,0.273,0.316,0.381c-0.118-0.24,0.031-0.294-0.112-0.536
		c0.037-0.028,0.075-0.058,0.11-0.084c0.138-0.034,0.085-0.288,0.558,0.179c-0.07-0.094-0.169-0.268-0.241-0.425
		c0.033-0.026,0.065-0.052,0.097-0.076c0.388,0.415,0.209-0.367,0.89,0.355c-0.518-0.674-0.09-0.673-0.138-1.048
		c0.013-0.016,0.022-0.03,0.034-0.046c0.025,0.041,0.04,0.072,0.014,0.063c0.147-0.048,0.372,0.118,0.554,0.174
		c-0.195-0.2-0.314-0.363-0.402-0.513c0.047-0.109,0.074-0.226,0.085-0.35c0.203,0.24,0.295,0.477,0.65,0.776
		c-0.442-0.424-0.241-0.645-0.64-0.959c0.405,0.221,0.229,0.071,0.715,0.46c-0.65-0.676-0.034-0.201-0.37-0.684
		c0.451,0.187,0.651,0.58,0.586,0.229c0.266,0.128,0.379,0.495,0.379,0.495c0.147-0.145-0.421-0.556-0.676-0.872
		c0.027-0.323,0.441,0.278,0.749,0.467c-0.029-0.245-0.399-0.783-0.302-0.851c0.086,0.075,0.131,0.087,0.213,0.208
		c-0.277-0.51,0.305-0.381-0.046-1.005c0.053,0.033,0.098,0.069,0.137,0.103c-0.262-0.221-0.509-0.463-0.679-0.643
		c0.058-0.074-0.178-0.428,0.159-0.137c-0.05,0.03,0.073,0.161,0.151,0.279l-0.065-0.205c0.509,0.39,0.06,0.251,0.393,0.586
		c-0.015-0.283-0.226-0.814,0.004-0.791c0.454,0.42-0.093,0.393,0.429,0.646l-0.323-0.008c0.809,0.575-0.143,0.051,0.705,0.684
		c0.327-0.087,0.004-0.465,0.333-0.551c-0.193-0.292-0.369-0.345-0.561-0.637c-0.129-0.735,1.3,0.86,0.946,0.056
		c-0.227-0.348-0.734-0.917-0.3-0.784l0.42,0.542c0.244-0.159-0.563-0.818-0.037-0.707c0.146,0.23-0.002,0.323,0.083,0.351
		c0.504,0.243-0.17-0.376-0.064-0.482l0.434,0.407c0.145-0.289,0.084-0.84,0.25-1.157c0.105,0.139,0.191,0.313,0.368,0.385
		c0.096-0.519,0.681-0.604,1.188-0.66l-0.223-0.471c0.028-0.022,0.195,0.111,0.232,0.209c0.234,0.019-0.203-0.231-0.28-0.427
		c0.041-0.09,0.272,0.117,0.331,0.265c-0.09-0.514-0.025-1.218,0.535-1.04l0.053,0.144c0.294-0.018-0.455-0.891-0.005-0.713
		l0.024,0.09c0.5-0.193,0.635-0.882,1.361-0.63c-0.371-0.539,0.547-0.124-0.014-0.823c0.498,0.141,0.541,0.316,1.021,0.262
		c0.104-0.043-0.238-0.528-0.199-0.688l0.297,0.346l-0.176-0.488l0.418,0.35l0.016-0.176c-0.053,0.015-0.207-0.082-0.285-0.188
		c0.014-0.289,0.548-0.085,0.695,0.088l0.096-0.608c0.104,0.144,0.088,0.244,0.115,0.375c-0.107-0.519,0.327,0.328,0.228-0.147
		c-0.085-0.057-0.154-0.215-0.206-0.287c0.25,0.129,0.434-0.047,0.502-0.264l0.161,0.257c0.298-0.178,0.458-0.605,0.752-0.863
		c-0.19-0.011-0.483-0.425-0.426-0.537l0.313,0.314c-0.116-0.262-0.195-0.052-0.291-0.412c0.143-0.055,0.39,0.325,0.418,0.493
		l0.037-0.236c0.09,0.095,0.103,0.176,0.2,0.314c-0.116-0.262,0.505,0.135,0.284-0.301l0.088,0.095
		c0.288-0.257,0.326-0.488,0.547-0.715c-0.225-0.291-0.082-0.31-0.194-0.6c0.249-0.062,0.617,0,0.806-0.205
		c0.039-0.264-0.141-0.273-0.203-0.495c0.209,0.245,0.4,0.043,0.432,0.318c0.221-0.254,0.277-0.331,0.451-0.79
		c-0.111-0.074-0.186-0.088-0.229-0.189c0.027-0.082-0.017-0.009,0.069,0.104c0.177-0.529,1.001,0.072,1.001-0.623v0.036l0.386-0.49
		c0.171-0.062,0.166,0.245,0.372,0.32c0.064-0.648,0.621-0.333,0.728-0.795c0.653,0.563,0.778-0.56,1.335-0.312l-0.095-0.151
		c-0.016-0.21,0.153,0.031,0.229,0.031c-0.08-0.121-0.161-0.09-0.164-0.211c0.268-0.31,0.66-0.438,1.055-0.546
		c0.398-0.103,0.809-0.177,1.193-0.282c0.271-0.095-0.219-0.869,0.276-0.67l0.035,0.33c0.372-0.608,1.065-0.545,1.491-1.039
		c-0.008,0.075,0.022,0.156-0.029,0.178c0.188,0.146,0.415-0.173,0.359-0.329c0.09-0.018,0.072,0.134,0.153,0.19
		c0.152,0.063,0.192-0.367,0.321-0.204c0.021,0.026-0.01,0.076-0.024,0.1c0.04-0.124,0.348-0.128,0.201-0.313
		c0.233,0.011,0.353-0.253,0.56-0.185c0.029-0.274,0.389-0.016,0.316-0.357c0.096,0.346,0.445,0.141,0.529-0.063
		c-0.014,0.117,0.145,0.063,0.137,0.221c0.145-0.06,0.262-0.172,0.186-0.33c0.389,0.29,0.463-0.512,0.76-0.068
		c0.402-0.307,0.793-0.538,1.186-0.725c0.059,0.3-0.443,0.16-0.346,0.472c0.352-0.244,0.516-0.559,0.918-0.598
		c0.109,0.01-0.027,0.141-0.049,0.2c0.357-0.238,0.754-0.192,1.072-0.418c0.006,0.024-0.027,0.062-0.059,0.091
		c0.066-0.025,0.168,0.002,0.135-0.119l-0.061,0.05c-0.148-0.155,0.199-0.433,0.193-0.526c-0.047,0.372,0.367,0.012,0.268,0.485
		c0.039-0.032,0.086-0.103,0.059-0.18c0.074,0.008,0.104,0.049,0.053,0.155c0.234-0.123,0.123-0.227,0.35-0.274
		c0.008,0.056-0.033,0.088-0.043,0.16c0.092-0.138,0.188-0.271,0.387-0.267c-0.006,0.036,0.023,0.074-0.031,0.086
		c0.322-0.092,0.508-0.406,0.887-0.375c-0.07,0.242,0.135,0.053,0.188,0.241l0.184-0.093l-0.094-0.078
		c0.172-0.027,0.303-0.188,0.459-0.151l-0.115,0.098l0.314-0.09l-0.191-0.039c0.16-0.122-0.055-0.229,0.184-0.213
		c-0.045,0.025,0.172-0.022,0.277,0.067l0,0c0.076-0.07,0.154-0.142,0.289-0.117c0.041,0.05,0,0.195,0.027,0.229
		c0.063-0.158,0.395-0.108,0.48-0.273c-0.029,0.04-0.02,0.128-0.006,0.145l0.055-0.125c0.084,0.024,0.098,0.038,0.094,0.109
		c0.242-0.02-0.102-0.195,0.193-0.152c-0.021,0.014-0.008,0.028-0.053,0.052c0.291,0.001,0.543-0.163,0.813-0.136
		c0.096,0.143-0.225,0.064-0.121,0.183c0.375-0.079,0.766-0.273,1.139-0.282l-0.07-0.007c0.031-0.199,0.285,0.063,0.461-0.049
		c-0.045,0.019-0.049,0.11-0.039,0.088c0.254-0.001,0.51-0.11,0.889-0.206l-0.043,0.05c0.15,0.02,0.393-0.026,0.555-0.026
		c0.045-0.046,0.137-0.051,0.076-0.104c0.512,0.165,0.941-0.182,1.395-0.049c-0.055,0.005-0.125,0.04-0.082,0.036l0.373-0.06
		c-0.033-0.052-0.051-0.029-0.133-0.065c0.047-0.036,0.15-0.066,0.244-0.072c-0.168,0.045,0.008,0.086,0.08,0.108
		c-0.012-0.016,0.012-0.035,0.004-0.051c0.203,0.077,0.027-0.104,0.301-0.06l-0.014,0.026c0.1-0.02,0.191-0.059,0.301-0.058
		c0.047,0.052-0.107,0.032-0.111,0.078c0.152-0.016,0.297-0.12,0.436-0.077c-0.064,0.019-0.156,0.021-0.221,0.041
		c0.15,0.051,0.17,0.032,0.275,0.031l0.254,0.009l-0.066-0.009c0.186-0.138,0.387-0.052,0.641-0.143
		c-0.248,0.085-0.039,0.043-0.057,0.092c0.066,0.008,0.166,0.015,0.137,0.03c0.121-0.047,0.205,0.016,0.373-0.045
		c0.01,0.014,0.131-0.004,0.104,0.03c0.158-0.02-0.037-0.021-0.025-0.039c0.242-0.05,0.574,0.022,0.922-0.046
		c0.303-0.03,0.357-0.062,0.639-0.078c0.094,0.01-0.078,0.029-0.078,0.029c0.123,0.006,0.225,0.002,0.332-0.006
		C96.203,171.577,96.219,171.573,96.248,171.571z M56.08,186.657c-0.059-0.072-0.114-0.14-0.148-0.194
		c0.002-0.094,0.084-0.039,0.16,0.027c-0.018,0.026-0.033,0.063-0.046,0.119C56.055,186.623,56.068,186.641,56.08,186.657z
		 M58.533,188.68c0.01-0.021,0.023-0.049,0.045-0.099l0.008,0.007C58.564,188.627,58.546,188.659,58.533,188.68z M58.724,188.397
		c-0.124-0.109-0.229-0.244-0.194-0.267c0.06,0.097,0.193,0.097,0.331,0.154C58.813,188.308,58.767,188.349,58.724,188.397z"/>
	<path fill="#FFFFFF" d="M96.193,171.583c-0.025,0.014-0.002,0.034,0.029,0.039l0.045,0.004c-0.008-0.022-0.01-0.045,0.006-0.049
		C96.244,171.579,96.219,171.581,96.193,171.583z"/>
	<path fill="#FFFFFF" d="M96.268,171.626c0.01,0.024,0.027,0.048,0.051,0.051c0.016,0,0.023,0.061,0.033,0.073l0.078-0.109
		L96.268,171.626z"/>
	<path fill="#FFFFFF" d="M97.053,171.665c-0.135,0.014-0.195-0.047-0.203-0.052l0.102-0.031c-0.025-0.006-0.063-0.007-0.107-0.008
		c0.006,0.022-0.09,0.108-0.135,0.115c0.111-0.007,0.268,0.029,0.369,0.052C97.102,171.719,97.088,171.663,97.053,171.665z"/>
	<path fill="#FFFFFF" d="M96.725,171.575c0.043-0.001,0.084-0.002,0.119-0.001c0-0.004,0.004-0.009,0-0.009
		C96.807,171.567,96.766,171.571,96.725,171.575z"/>
	<path fill="#FFFFFF" d="M96.434,171.6c0.09-0.008,0.191-0.017,0.291-0.024c-0.07,0.001-0.145,0.004-0.219,0.008
		C96.482,171.588,96.467,171.593,96.434,171.6z"/>
	<path fill="#FFFFFF" d="M56.283,187.003c0,0.015,0.011,0.033,0.005,0.044c0.04,0.022,0.074,0.04,0.104,0.054l-0.088-0.126
		L56.283,187.003z"/>
	<path fill="#FFFFFF" d="M89.781,171.73c-0.006-0.003-0.006-0.006-0.01-0.01l-0.01-0.001
		C89.77,171.724,89.775,171.727,89.781,171.73z"/>
	<polygon fill="#FFFFFF" points="63.449,185.027 63.381,184.946 63.414,185.042 	"/>
	<path fill="#FFFFFF" d="M93.777,171.728c0.008-0.009,0.01-0.015,0.014-0.02l-0.002-0.001L93.777,171.728z"/>
	<path fill="#FFFFFF" d="M82.033,173.613c-0.01,0.002-0.018,0.008-0.025,0.014C81.949,173.677,81.99,173.652,82.033,173.613z"/>
	<path fill="#FFFFFF" d="M85.434,172.551c-0.035,0.031-0.068,0.061-0.105,0.082C85.393,172.633,85.441,172.628,85.434,172.551z"/>
	<polygon fill="#FFFFFF" points="78.365,174.993 78.365,174.989 78.342,174.998 	"/>
	<path fill="#FFFFFF" d="M85.328,172.633c-0.051-0.001-0.113-0.005-0.162,0.024C85.232,172.674,85.283,172.659,85.328,172.633z"/>
	<polygon fill="#FFFFFF" points="97.074,171.572 97.033,171.575 97.07,171.574 	"/>
	<path fill="#FFFFFF" d="M97.199,171.563l-0.084,0.006C97.137,171.567,97.152,171.566,97.199,171.563z"/>
	<path fill="#FFFFFF" d="M95.736,171.632c0.072-0.001,0.18,0.009,0.281-0.002l0.01-0.006
		C95.979,171.638,95.805,171.615,95.736,171.632z"/>
	<path fill="#FFFFFF" d="M94.469,171.524l0.254,0.01c-0.045-0.013-0.104-0.032,0.012-0.034
		C94.412,171.456,94.801,171.53,94.469,171.524z"/>
	<path fill="#FFFFFF" d="M93.686,171.473c-0.088,0.019-0.107,0.023-0.006,0.036C93.816,171.496,93.678,171.484,93.686,171.473z"/>
	<path fill="#FFFFFF" d="M87.988,171.779l0.004-0.097C87.889,171.702,87.996,171.719,87.988,171.779z"/>
	<polygon fill="#FFFFFF" points="87.076,172.465 87.113,172.36 86.969,172.416 	"/>
	<polygon fill="#FFFFFF" points="86.275,171.698 86.105,171.756 86.232,171.719 	"/>
	<path fill="#FFFFFF" d="M76.719,173.477l0.111,0.232C76.886,173.646,76.811,173.373,76.719,173.477z"/>
	<path fill="#FFFFFF" d="M72.865,175.188c-0.107-0.12-0.262-0.163-0.263,0.001C72.699,175.171,72.838,175.241,72.865,175.188z"/>
	<polygon fill="#FFFFFF" points="61.842,181.506 61.916,181.479 61.887,181.31 	"/>
</g>
</svg>
